# This file uses centimeters as units for non-parametric coordinates.

mtllib ball.mtl
g default
v -0.175410 0.449802 -0.188507
v -0.084921 0.560204 -0.104876
v -0.249650 0.574811 -0.109565
v -0.314652 0.422802 -0.103340
v -0.190097 0.314248 -0.094805
v -0.048116 0.399166 -0.095755
v -0.043684 0.492881 0.040513
v -0.168238 0.601435 0.031978
v -0.310220 0.516516 0.032927
v -0.273414 0.355479 0.042048
v -0.108686 0.340872 0.046737
v -0.182926 0.465881 0.125680
vt 1.000000 0.500000
vt 0.838104 0.676208
vt 0.088104 0.823792
vt 0.176208 0.500000
vt 0.088104 0.176208
vt 0.838104 0.323792
vt 0.676208 0.500000
vt 0.588104 0.823792
vt 0.338104 0.676208
vt 0.338104 0.323792
vt 0.588104 0.176208
vt 0.500000 0.500000
vt 1.088104 0.823792
vt 1.176208 0.500000
vt 1.088104 0.176208
vn 0.073374 0.563293 -0.822993
vn 0.073374 0.563293 -0.822993
vn 0.073374 0.563293 -0.822993
vn -0.539074 0.196989 -0.818898
vn -0.539074 0.196989 -0.818898
vn -0.539074 0.196989 -0.818898
vn -0.380310 -0.497658 -0.779552
vn -0.380310 -0.497658 -0.779552
vn -0.380310 -0.497658 -0.779552
vn 0.330259 -0.560669 -0.759328
vn 0.330259 -0.560669 -0.759328
vn 0.330259 -0.560669 -0.759328
vn 0.610651 0.095035 -0.786176
vn 0.610651 0.095035 -0.786176
vn 0.610651 0.095035 -0.786176
vn 0.092492 0.967538 -0.235193
vn 0.092492 0.967538 -0.235193
vn 0.092492 0.967538 -0.235193
vn -0.898470 0.374845 -0.228568
vn -0.898470 0.374845 -0.228568
vn -0.898470 0.374845 -0.228568
vn -0.641585 -0.749117 -0.164904
vn -0.641585 -0.749117 -0.164904
vn -0.641585 -0.749117 -0.164904
vn 0.508140 -0.851071 -0.132182
vn 0.508140 -0.851071 -0.132182
vn 0.508140 -0.851071 -0.132182
vn 0.961825 0.209880 -0.175623
vn 0.961825 0.209880 -0.175623
vn 0.961825 0.209880 -0.175623
vn 0.641585 0.749117 0.164904
vn 0.641585 0.749117 0.164904
vn 0.641585 0.749117 0.164904
vn -0.508140 0.851071 0.132182
vn -0.508140 0.851071 0.132182
vn -0.508140 0.851071 0.132182
vn -0.961825 -0.209880 0.175623
vn -0.961825 -0.209880 0.175623
vn -0.961825 -0.209880 0.175623
vn -0.092492 -0.967538 0.235193
vn -0.092492 -0.967538 0.235193
vn -0.092492 -0.967538 0.235193
vn 0.898470 -0.374845 0.228568
vn 0.898470 -0.374845 0.228568
vn 0.898470 -0.374845 0.228568
vn 0.380310 0.497658 0.779552
vn 0.380310 0.497658 0.779552
vn 0.380310 0.497658 0.779552
vn -0.330259 0.560669 0.759328
vn -0.330259 0.560669 0.759328
vn -0.330259 0.560669 0.759328
vn -0.610651 -0.095035 0.786177
vn -0.610651 -0.095035 0.786177
vn -0.610651 -0.095035 0.786177
vn -0.073374 -0.563293 0.822993
vn -0.073374 -0.563293 0.822993
vn -0.073374 -0.563293 0.822993
vn 0.539074 -0.196989 0.818898
vn 0.539074 -0.196989 0.818898
vn 0.539074 -0.196989 0.818898
s off
g pPlatonic1
usemtl initialShadingGroup
f 1/1/1 3/13/2 2/2/3
f 1/1/4 4/14/5 3/13/6
f 1/1/7 5/15/8 4/14/9
f 1/1/10 6/6/11 5/15/12
f 1/1/13 2/2/14 6/6/15
f 2/2/16 3/13/17 8/8/18
f 3/3/19 4/4/20 9/9/21
f 4/4/22 5/5/23 10/10/24
f 5/15/25 6/6/26 11/11/27
f 6/6/28 2/2/29 7/7/30
f 2/2/31 8/8/32 7/7/33
f 3/3/34 9/9/35 8/8/36
f 4/4/37 10/10/38 9/9/39
f 5/5/40 11/11/41 10/10/42
f 6/6/43 7/7/44 11/11/45
f 7/7/46 8/8/47 12/12/48
f 8/8/49 9/9/50 12/12/51
f 9/9/52 10/10/53 12/12/54
f 10/10/55 11/11/56 12/12/57
f 11/11/58 7/7/59 12/12/60
